stock.svg<svg width="24" height="24" viewBox="0 0 24 24" fill="none" xmlns="http://www.w3.org/2000/svg">
<path fill-rule="evenodd" clip-rule="evenodd" d="M3.53981 24.0001C3.1146 24.0019 2.73476 23.7346 2.59288 23.3337C2.45101 22.9329 2.57814 22.4862 2.90981 22.2201L4.66981 20.7901C5.3235 20.2604 6.23881 20.1964 6.95981 20.6301C10.8488 22.9094 15.782 22.3051 19.0058 19.1545C22.2296 16.0038 22.947 11.0857 20.7575 7.14546C18.5679 3.2052 14.0129 1.21692 9.63484 2.29045C5.2568 3.36398 2.1382 7.2339 2.01981 11.7401C1.95043 13.7201 2.48776 15.674 3.55981 17.3401C3.75095 17.642 3.76651 18.0229 3.60064 18.3394C3.43476 18.6558 3.11265 18.8598 2.75564 18.8744C2.39862 18.889 2.06095 18.712 1.86981 18.4101C0.582205 16.4075 -0.0632378 14.0595 0.0198123 11.6801C0.166655 6.27403 3.91145 1.63416 9.16468 0.349436C14.4179 -0.935293 19.8814 1.45259 22.5067 6.1807C25.1319 10.9088 24.2702 16.8087 20.4023 20.5885C16.5344 24.3682 10.6161 25.0937 5.94981 22.3601L4.16981 23.7701C3.99255 23.917 3.77003 23.9982 3.53981 24.0001ZM12.9998 16.0001V11.0001C12.9998 10.4478 12.5521 10.0001 11.9998 10.0001C11.4475 10.0001 10.9998 10.4478 10.9998 11.0001V16.0001C10.9998 16.5524 11.4475 17.0001 11.9998 17.0001C12.5521 17.0001 12.9998 16.5524 12.9998 16.0001ZM10.9998 8.00008C10.9998 8.55237 11.4475 9.00008 11.9998 9.00008C12.5521 9.00008 12.9998 8.55237 12.9998 8.00008C12.9998 7.4478 12.5521 7.00008 11.9998 7.00008C11.4475 7.00008 10.9998 7.4478 10.9998 8.00008Z" fill="#21CA3D"/>
</svg>
