<svg width="128" height="128" viewBox="0 0 128 128" fill="none" xmlns="http://www.w3.org/2000/svg">
<path d="M49.9233 95.7186C49.3249 97.0424 50.293 98.5424 51.7458 98.5424H65.2868C66.0777 98.5424 66.7943 98.0763 67.115 97.3533L84.3166 58.5697C84.9032 57.2473 83.9351 55.7589 82.4884 55.7589H67.9677L78.1022 32.9716C78.6904 31.649 77.7223 30.1589 76.2747 30.1589H62.7186C61.9249 30.1589 61.2064 30.6281 60.8873 31.3548L44.0128 69.7877C43.4325 71.1094 44.4006 72.5917 45.8441 72.5917H60.3774L49.9233 95.7186Z" fill="white"/>
<path fill-rule="evenodd" clip-rule="evenodd" d="M125.541 55.7589L121.79 55.7589H99.9659C99.1795 55.7589 98.466 56.2198 98.1427 56.9368L92.3561 69.7696C91.7592 71.0933 92.7273 72.5918 94.1793 72.5918H110.677C106.651 94.5942 87.1499 111.518 63.8275 111.518C37.6065 111.518 16.2156 90.126 16.2156 64.1753C16.2156 38.2247 37.6065 16.8329 63.8275 16.8329C76.2176 16.8329 87.3752 21.531 95.8442 28.8552C96.6647 29.5648 97.9005 29.5422 98.6613 28.7689L107.602 19.6814C108.384 18.8862 108.367 17.6023 107.538 16.8551C95.9965 6.44142 81.0351 0 64.1725 0C28.6361 0 0 28.7562 0 63.8247C0 98.8931 28.2911 128 63.8275 128C99.3639 128 128 99.2438 128 64.1753C128 61.9553 127.784 59.7352 127.523 57.5152C127.405 56.5119 126.551 55.7589 125.541 55.7589ZM110.677 72.5918H121.79V55.7589L110.749 55.7589C111.094 58.5644 111.439 61.3699 111.439 64.1753C111.439 67.0441 111.178 69.8572 110.677 72.5918Z" fill="white"/>
<path d="M110.749 55.7589C111.094 58.5644 111.439 61.3699 111.439 64.1753C111.439 67.0441 111.178 69.8572 110.677 72.5918H121.79V55.7589L110.749 55.7589Z" fill="white"/>
</svg>
