<svg width="24" height="24" viewBox="0 0 24 24" fill="none" xmlns="http://www.w3.org/2000/svg">
<path fill-rule="evenodd" clip-rule="evenodd" d="M21 19.8999H3C1.34315 19.8999 0 18.5568 0 16.8999V10.8999C0 9.79533 0.89543 8.8999 2 8.8999H22V6.8999C22 6.34762 21.5523 5.8999 21 5.8999H3C2.44772 5.8999 2 6.34762 2 6.8999C2 7.45219 1.55228 7.8999 1 7.8999C0.447715 7.8999 0 7.45219 0 6.8999C0 5.24305 1.34315 3.8999 3 3.8999H21C22.6569 3.8999 24 5.24305 24 6.8999V8.8999C24 10.0045 23.1046 10.8999 22 10.8999H2V16.8999C2 17.4522 2.44772 17.8999 3 17.8999H21C21.5523 17.8999 22 17.4522 22 16.8999V13.8999C22 13.3476 22.4477 12.8999 23 12.8999C23.5523 12.8999 24 13.3476 24 13.8999V16.8999C24 18.5568 22.6569 19.8999 21 19.8999ZM20 13.8999C20 13.3476 19.5523 12.8999 19 12.8999H15C14.4477 12.8999 14 13.3476 14 13.8999C14 14.4522 14.4477 14.8999 15 14.8999H19C19.5523 14.8999 20 14.4522 20 13.8999Z" fill="#21CA3D"/>
</svg>
