<svg width="16" height="16" viewBox="0 0 16 16" fill="none" xmlns="http://www.w3.org/2000/svg">
<path fill-rule="evenodd" clip-rule="evenodd" d="M7.992 0C3.576 0 0 3.584 0 8C0 12.416 3.576 16 7.992 16C12.416 16 16 12.416 16 8C16 3.584 12.416 0 7.992 0ZM7.75998 3.2C8.29016 3.2 8.71996 3.59796 8.71996 4.08888V8.05756L11.1724 9.57144C11.6136 9.84375 11.7328 10.3956 11.4387 10.8041C11.1446 11.2126 10.5486 11.3229 10.1074 11.0506L7.22748 9.27286C6.96041 9.10801 6.8 8.83047 6.8 8.53327V4.08888C6.8 3.59796 7.2298 3.2 7.75998 3.2Z" fill="#35DCA5"/>
</svg>
