<svg width="24" height="24" viewBox="0 0 24 24" fill="none" xmlns="http://www.w3.org/2000/svg">
<path d="M12 0C5.4 0 0 5.4 0 12C0 18.6 5.4 24 12 24C18.6 24 24 18.6 24 12C24 5.4 18.6 0 12 0ZM16.2 16.2C16 16.4 15.7 16.5 15.5 16.5C15.3 16.5 15 16.4 14.8 16.2L12 13.4L9.2 16.2C9 16.4 8.7 16.5 8.5 16.5C8.3 16.5 8 16.4 7.8 16.2C7.4 15.8 7.4 15.2 7.8 14.8L10.6 12L7.8 9.2C7.4 8.8 7.4 8.2 7.8 7.8C8.2 7.4 8.8 7.4 9.2 7.8L12 10.6L14.8 7.8C15.2 7.4 15.8 7.4 16.2 7.8C16.6 8.2 16.6 8.8 16.2 9.2L13.4 12L16.2 14.8C16.6 15.2 16.6 15.9 16.2 16.2Z" fill="#394A6C"/>
<path d="M16.2 16.2C16 16.4 15.7 16.5 15.5 16.5C15.3 16.5 15 16.4 14.8 16.2L12 13.4L9.2 16.2C9 16.4 8.7 16.5 8.5 16.5C8.3 16.5 8 16.4 7.8 16.2C7.4 15.8 7.4 15.2 7.8 14.8L10.6 12L7.8 9.2C7.4 8.8 7.4 8.2 7.8 7.8C8.2 7.4 8.8 7.4 9.2 7.8L12 10.6L14.8 7.8C15.2 7.4 15.8 7.4 16.2 7.8C16.6 8.2 16.6 8.8 16.2 9.2L13.4 12L16.2 14.8C16.6 15.2 16.6 15.9 16.2 16.2Z" fill="white"/>
</svg>
