<svg width="24" height="24" viewBox="0 0 24 24" fill="none" xmlns="http://www.w3.org/2000/svg">
<path fill-rule="evenodd" clip-rule="evenodd" d="M21.6229 12.7218H21.3233L17.2384 12.0619C16.6868 11.9735 16.3112 11.4543 16.3995 10.9021C16.4877 10.35 17.0064 9.97395 17.558 10.0623L21.6229 10.7222C21.7009 10.726 21.7769 10.697 21.8326 10.6422C21.9505 10.5349 22.0161 10.3817 22.0124 10.2223V7.56281C22.0124 6.82297 21.0136 5.95315 19.4257 5.29328C17.058 4.40211 14.5441 3.9646 12.015 4.00355C9.49607 3.94201 6.98736 4.34532 4.61434 5.1933C3.00636 5.84317 2.00762 6.69299 1.99764 7.43284V10.2123C1.99133 10.3702 2.05319 10.5231 2.16742 10.6322C2.23164 10.6929 2.31935 10.7222 2.40712 10.7122L5.31345 10.2823C5.66479 10.2291 5.96144 9.99302 6.09247 9.66238L6.6218 8.31266C7.0411 7.24799 8.02907 6.51496 9.16859 6.42305L10.0075 6.35306C11.3366 6.23647 12.6734 6.23647 14.0025 6.35306L16.0799 6.55302C16.6286 6.60573 17.0309 7.09347 16.9787 7.6428C16.9261 8.19208 16.4389 8.5948 15.8901 8.54261L13.8127 8.34265C12.5966 8.2358 11.3735 8.2358 10.1573 8.34265L9.3184 8.41264C8.93856 8.44328 8.60924 8.68762 8.46947 9.04251L7.94014 10.3922C7.54814 11.3908 6.65318 12.1037 5.5931 12.2618L2.66679 12.6918C2.00399 12.7744 1.3378 12.5667 0.839098 12.1219C0.297576 11.6319 -0.00791424 10.9329 0.000155944 10.2023V7.42284C0.000155944 5.78318 1.3884 4.34348 3.86528 3.34368C6.42297 2.40657 9.13207 1.95231 11.8552 2.00396H12.045C14.8249 1.97299 17.586 2.46475 20.1847 3.45366C22.6516 4.45345 24.0099 5.95315 23.9999 7.58281V10.2423C23.9975 10.9741 23.681 11.6697 23.131 12.1519C22.7126 12.5164 22.1775 12.7186 21.6229 12.7218ZM23.7002 19.3706C24.0326 18.6861 24.0723 17.8955 23.81 17.1811L22.9811 14.6816C22.8073 14.157 22.2417 13.8728 21.7177 14.0467C21.1936 14.2206 20.9097 14.7869 21.0835 15.3114L21.9124 17.8109C21.9936 18.0165 21.9936 18.2453 21.9124 18.4508C21.7404 18.7831 21.3974 18.9915 21.0235 18.9907H3.02623C2.65235 18.9915 2.30934 18.7831 2.13735 18.4508C2.05512 18.2455 2.05512 18.0163 2.13735 17.8109L2.96631 15.3114C3.14006 14.7869 2.85612 14.2206 2.33211 14.0467C1.8081 13.8728 1.24245 14.157 1.0687 14.6816L0.239747 17.1811C-0.0196724 17.8925 0.0199637 18.6789 0.349608 19.3606C0.861709 20.3686 1.89659 21.0025 3.02623 21.0003H21.0036C22.1346 21.0082 23.1737 20.3779 23.6902 19.3706H23.7002ZM9.0189 14.0014C8.46731 14.0014 8.02016 14.4491 8.02016 15.0012C8.02016 15.5534 8.46731 16.001 9.0189 16.001C9.57049 16.001 10.0176 15.5534 10.0176 15.0012C10.0176 14.4491 9.57049 14.0014 9.0189 14.0014ZM12.0151 14.0014C11.4635 14.0014 11.0164 14.4491 11.0164 15.0012C11.0164 15.5534 11.4635 16.001 12.0151 16.001C12.5667 16.001 13.0139 15.5534 13.0139 15.0012C13.0139 14.4491 12.5667 14.0014 12.0151 14.0014ZM15.0113 14.0014C14.4597 14.0014 14.0126 14.4491 14.0126 15.0012C14.0126 15.5534 14.4597 16.001 15.0113 16.001C15.5629 16.001 16.0101 15.5534 16.0101 15.0012C16.0101 14.4491 15.5629 14.0014 15.0113 14.0014Z" fill="#21CA3D"/>
</svg>
