<svg width="24" height="24" viewBox="0 0 24 24" fill="none" xmlns="http://www.w3.org/2000/svg">
<g clip-path="url(#clip0_1211_42)">
<path fill-rule="evenodd" clip-rule="evenodd" d="M2.00207 19.759C0.763874 19.3377 -0.0464486 18.1887 0.00206514 16.9231V13.8943C0.0122516 12.87 0.598137 11.9318 1.53207 11.4442V11.1838C1.50419 6.20088 5.23802 1.93869 10.3361 1.13391C15.4342 0.329127 20.3818 3.22088 22.0021 7.95241C22.1253 8.27635 22.0601 8.63911 21.8308 8.90404C21.6016 9.16897 21.2433 9.29583 20.8908 9.23682C20.5384 9.17782 20.2453 8.94192 20.1221 8.61798C19.455 6.63379 18.023 4.97274 16.1221 3.97831C13.4719 2.62049 10.2784 2.69868 7.70306 4.18445C5.12769 5.67022 3.54558 8.3471 3.53207 11.2417V12.2062C3.53207 12.739 3.08435 13.1708 2.53207 13.1708C2.36207 13.1708 2.03207 13.547 2.03207 13.9039V17.0292C2.03207 17.5619 2.47978 17.9938 3.03207 17.9938C3.58435 17.9938 4.03206 17.5619 4.03206 17.0292V14.8685C4.03206 14.3358 4.47978 13.9039 5.03206 13.9039C5.58435 13.9039 6.03206 14.3358 6.03206 14.8685V17.0292C6.03611 17.9761 5.55957 18.8651 4.75616 19.4093C3.95274 19.9535 2.92411 20.0841 2.00207 19.759ZM21.8821 19.9713C23.1392 19.5993 23.9986 18.481 24.0021 17.2126V14.4153C24.0506 13.1497 23.2403 12.0007 22.0021 11.5794C21.0803 11.265 20.0575 11.4037 19.2612 11.9509C18.4649 12.4982 17.995 13.3854 18.0021 14.3285V16.2577C18.0021 16.7904 18.4498 17.2223 19.0021 17.2223C19.5544 17.2223 20.0021 16.7904 20.0021 16.2577V14.3285C20.0021 13.7958 20.4498 13.3639 21.0021 13.3639C21.5544 13.3639 22.0021 13.7958 22.0021 14.3285V17.2223C22.0021 17.755 21.5544 18.1869 21.0021 18.1869C20.7261 18.1864 20.4622 18.2959 20.2729 18.4895C20.0835 18.6831 19.9855 18.9436 20.0021 19.2093C19.9696 20.2521 19.0836 21.0811 18.0021 21.0806H14.0021V20.3958C14.0021 19.863 13.5544 19.4312 13.0021 19.4312C12.4498 19.4312 12.0021 19.863 12.0021 20.3958V22.0356C12.0021 22.5683 12.4498 23.0002 13.0021 23.0002H18.0021C19.8812 23.0018 21.5081 21.7415 21.9121 19.9713H21.8821Z" fill="#21CA3D"/>
</g>
<defs>
<clipPath id="clip0_1211_42">
<rect width="24" height="24" fill="white"/>
</clipPath>
</defs>
</svg>
