<svg width="24" height="24" viewBox="0 0 24 24" fill="none" xmlns="http://www.w3.org/2000/svg">
<path fill-rule="evenodd" clip-rule="evenodd" d="M15 24H3C1.34315 24 0 22.6569 0 21V3C0 1.34315 1.34315 0 3 0H15C16.6569 0 18 1.34315 18 3V4C18 4.55228 17.5523 5 17 5C16.4477 5 16 4.55228 16 4V3C16 2.44772 15.5523 2 15 2H3C2.44772 2 2 2.44772 2 3V21C2 21.5523 2.44772 22 3 22H15C15.5523 22 16 21.5523 16 21V20C16 19.4477 16.4477 19 17 19C17.5523 19 18 19.4477 18 20V21C18 22.6569 16.6569 24 15 24ZM20.89 12.45C21.0416 12.1247 21.0073 11.743 20.8 11.45L17.8 7.45C17.4686 7.00817 16.8418 6.91863 16.4 7.25C15.9582 7.58137 15.8686 8.20817 16.2 8.65L18 11H9C8.44771 11 8 11.4477 8 12C8 12.5523 8.44771 13 9 13H20C20.3766 12.9989 20.7206 12.7863 20.89 12.45ZM17.8 16.6L18.55 15.6C18.8814 15.1582 18.7918 14.5314 18.35 14.2C17.9082 13.8686 17.2814 13.9582 16.95 14.4L16.2 15.4C15.8686 15.8418 15.9582 16.4686 16.4 16.8C16.8418 17.1314 17.4686 17.0418 17.8 16.6Z" fill="#21CA3D"/>
</svg>
