<svg width="24" height="24" viewBox="0 0 24 24" fill="none" xmlns="http://www.w3.org/2000/svg">
<path fill-rule="evenodd" clip-rule="evenodd" d="M0.443687 5.16903C0.720954 4.98341 1.07254 4.9483 1.38103 5.07544L6.5 7.18508L10.244 5.64211C10.7546 5.43167 11.3391 5.67502 11.5496 6.18564C11.76 6.69626 11.5167 7.28079 11.006 7.49123L6.88103 9.19123C6.63697 9.29182 6.36303 9.29182 6.11897 9.19123L2 7.49372V20.0639L6.5 21.9184L11.619 19.8088C11.863 19.7082 12.137 19.7082 12.381 19.8088L17.5 21.9184L22 20.0639V6C22 5.44772 22.4477 5 23 5C23.5523 5 24 5.44772 24 6V20.7333C24 21.1385 23.7556 21.5035 23.381 21.6579L17.881 23.9246C17.637 24.0252 17.363 24.0252 17.119 23.9246L12 21.8149L6.88103 23.9246C6.63697 24.0252 6.36303 24.0252 6.11897 23.9246L0.618968 21.6579C0.244416 21.5035 0 21.1385 0 20.7333V6C0 5.66634 0.16642 5.35465 0.443687 5.16903Z" fill="#21CA3D"/>
<path d="M17.0231 0C14.0636 0 13 2.40501 13 3.95825C13 5.61169 13.2775 6.16284 16.6069 11.7745C16.7919 12.0752 17.2081 12.0752 17.3931 11.7745C20.7225 6.16284 21 5.56159 21 3.95825C21 2.40501 19.9827 0 17.0231 0Z" fill="#21CA3D"/>
</svg>
