<svg width="24" height="24" viewBox="0 0 24 24" fill="none" xmlns="http://www.w3.org/2000/svg">
<path d="M12 1C12 1.6 11.6 2 11 2L7 2C6.4 2 6 1.6 6 1C6 0.4 6.4 -1.48619e-07 7 -1.74846e-07L11 -3.49691e-07C11.6 -3.75918e-07 12 0.4 12 1ZM6 4L12 4C13.7 4 15 5.3 15 7L15 21C15 22.7 13.7 24 12 24L6 24C4.3 24 3 22.7 3 21L3 7C3 5.3 4.3 4 6 4ZM7 17C6.4 17 6 17.4 6 18C6 18.6 6.4 19 7 19L11 19C11.6 19 12 18.6 12 18C12 17.4 11.6 17 11 17L7 17ZM7 13C6.4 13 6 13.4 6 14C6 14.6 6.4 15 7 15L11 15C11.6 15 12 14.6 12 14C12 13.4 11.6 13 11 13L7 13ZM7 9C6.4 9 6 9.4 6 10C6 10.6 6.4 11 7 11L11 11C11.6 11 12 10.6 12 10C12 9.4 11.6 9 11 9L7 9Z" fill="#21CA3D"/>
<path d="M11 23L17 23C18.1046 23 19 22.1046 19 21L19 17L19 16L19 12" stroke="#21CA3D" stroke-width="2" stroke-linecap="round"/>
<rect x="21" y="8" width="4" height="4" rx="1" transform="rotate(90 21 8)" fill="#21CA3D"/>
</svg>
