<svg width="36" height="24" viewBox="0 0 36 24" fill="none" xmlns="http://www.w3.org/2000/svg">
<path d="M0 6.4C0 4.15979 0 3.03969 0.435974 2.18404C0.819467 1.43139 1.43139 0.819467 2.18404 0.435974C3.03969 0 4.15979 0 6.4 0H29.6C31.8402 0 32.9603 0 33.816 0.435974C34.5686 0.819467 35.1805 1.43139 35.564 2.18404C36 3.03969 36 4.15979 36 6.4V17.6C36 19.8402 36 20.9603 35.564 21.816C35.1805 22.5686 34.5686 23.1805 33.816 23.564C32.9603 24 31.8402 24 29.6 24H6.4C4.15979 24 3.03969 24 2.18404 23.564C1.43139 23.1805 0.819467 22.5686 0.435974 21.816C0 20.9603 0 19.8402 0 17.6V6.4Z" fill="#F2F5F4"/>
<path d="M13 19C16.866 19 20 15.866 20 12C20 8.13401 16.866 5 13 5C9.13401 5 6 8.13401 6 12C6 15.866 9.13401 19 13 19Z" fill="#EB001B"/>
<path d="M23 19C26.866 19 30 15.866 30 12C30 8.13401 26.866 5 23 5C19.134 5 16 8.13401 16 12C16 15.866 19.134 19 23 19Z" fill="#F79E1B"/>
<path fill-rule="evenodd" clip-rule="evenodd" d="M18 7.10107C16.7628 8.36361 16 10.0928 16 12.0001C16 13.9074 16.7628 15.6365 18 16.899C19.2372 15.6365 20 13.9074 20 12.0001C20 10.0928 19.2372 8.36361 18 7.10107Z" fill="#FF5F00"/>
</svg>
