<svg width="36" height="24" viewBox="0 0 36 24" fill="none" xmlns="http://www.w3.org/2000/svg">
<path d="M0 6.4C0 4.15979 0 3.03969 0.435974 2.18404C0.819467 1.43139 1.43139 0.819467 2.18404 0.435974C3.03969 0 4.15979 0 6.4 0H29.6C31.8402 0 32.9603 0 33.816 0.435974C34.5686 0.819467 35.1805 1.43139 35.564 2.18404C36 3.03969 36 4.15979 36 6.4V17.6C36 19.8402 36 20.9603 35.564 21.816C35.1805 22.5686 34.5686 23.1805 33.816 23.564C32.9603 24 31.8402 24 29.6 24H6.4C4.15979 24 3.03969 24 2.18404 23.564C1.43139 23.1805 0.819467 22.5686 0.435974 21.816C0 20.9603 0 19.8402 0 17.6V6.4Z" fill="#F2F5F4"/>
<path fill-rule="evenodd" clip-rule="evenodd" d="M18.4395 16.6915H21.294V7.59033H18.4395V16.6915Z" fill="#3CA436"/>
<path fill-rule="evenodd" clip-rule="evenodd" d="M31.4878 16.6928L29.4628 13.6114C30.3231 13.2967 31.0044 12.6029 31.31 11.7273H22.5166V16.6916H25.3654V13.7957H26.7296L28.2255 16.6928H31.4878Z" fill="#3CA436"/>
<path fill-rule="evenodd" clip-rule="evenodd" d="M22.1094 7.59033C22.4929 9.70822 24.3199 11.3136 26.5184 11.3136H31.4269C31.4669 11.113 31.4884 10.9055 31.4884 10.693C31.4884 8.97954 30.119 7.59033 28.43 7.59033H22.1094Z" fill="#3CA436"/>
<path fill-rule="evenodd" clip-rule="evenodd" d="M12.7499 8.73082L11.557 12.9554H11.3525L10.1596 8.73082C9.95751 8.01518 9.31645 7.52246 8.58735 7.52246H5.72754V16.7167H8.5911V11.2838H8.7956L10.432 16.7167H12.4775L14.1139 11.2838H14.3184V16.7167H17.1821V7.52246H14.3221C13.5932 7.52246 12.952 8.01518 12.7499 8.73082Z" fill="#3CA436"/>
</svg>
