<svg width="16" height="16" viewBox="0 0 16 16" fill="none" xmlns="http://www.w3.org/2000/svg">
<path fill-rule="evenodd" clip-rule="evenodd" d="M0 8C0 3.584 3.576 0 7.992 0C12.416 0 16 3.584 16 8C16 12.416 12.416 16 7.992 16C3.576 16 0 12.416 0 8ZM9.99111 9.25333C10.4844 9.41333 11.0133 9.50222 11.56 9.50222C11.8 9.50222 12 9.70222 12 9.94222V11.4756C12 11.72 11.8756 12 11.56 12C7.43556 12 4 8.56889 4 4.44C4 4.10667 4.28889 4 4.52889 4H6.06667C6.30667 4 6.50667 4.2 6.50667 4.44C6.50667 4.98667 6.59111 5.51556 6.75556 6.00889C6.80444 6.16444 6.76889 6.33778 6.64889 6.46222L5.78222 7.2C6.40889 8.50222 7.58667 9.63556 8.84444 10.2356L9.54222 9.36C9.66222 9.24 9.83556 9.2 9.99111 9.25333Z" fill="#35DCA5"/>
</svg>
