<svg width="24" height="24" viewBox="0 0 24 24" fill="none" xmlns="http://www.w3.org/2000/svg">
<path d="M10 -2.18557e-07L14 -3.93402e-07C14.6 -4.19629e-07 15 0.4 15 1C15 1.6 14.6 2 14 2L10 2C9.4 2 9 1.6 9 1C9 0.4 9.4 -1.9233e-07 10 -2.18557e-07ZM8 4L16 4C17.7 4 19 5.3 19 7L19 21C19 22.7 17.7 24 16 24L8 24C6.3 24 5 22.7 5 21L5 7C5 5.3 6.3 4 8 4ZM11.8 9C11.3 9.1 10.9 9.7 11.1 10.2L11.7 13L11 13C10.7 13 10.4 13.1 10.2 13.4C10 13.7 10 13.9 10 14.2L11 18.2C11.2 18.8 11.7 19.1 12.2 19C12.8 18.8 13.1 18.3 13 17.8L12.3 15L13 15C13.3 15 13.6 14.9 13.8 14.6C13.9 14.4 14 14.2 14 14C14 13.9 14 13.8 14 13.8L13 9.8C12.8 9.2 12.3 8.9 11.8 9Z" fill="#21CA3D"/>
</svg>
