<svg width="24" height="24" viewBox="0 0 24 24" fill="none" xmlns="http://www.w3.org/2000/svg">
<path fill-rule="evenodd" clip-rule="evenodd" d="M11.048 22.9019C6.02208 22.9237 1.62065 19.5359 0.355321 14.6718C-0.910006 9.80765 1.28265 4.70454 5.6821 2.27441C10.0816 -0.155725 15.5686 0.705317 19.0123 4.3662C22.4559 8.02708 22.9801 13.5565 20.2857 17.7993C20.016 18.2253 19.452 18.352 19.026 18.0823C18.6 17.8125 18.4733 17.2486 18.7431 16.8226C21.2337 12.864 20.3295 7.66322 16.6487 4.77769C12.968 1.89215 7.70172 2.25546 4.45209 5.61911C1.20247 8.98275 1.02091 14.2584 4.03162 17.8375C7.04232 21.4166 12.2711 22.141 16.1415 19.5154C16.4122 19.3327 16.7598 19.3084 17.0533 19.4515C17.3468 19.5946 17.5416 19.8834 17.5644 20.2091C17.5873 20.5349 17.4346 20.848 17.1639 21.0306C15.3568 22.2489 13.2274 22.9005 11.048 22.9019ZM14.4254 15.3256C14.7793 14.9695 14.7793 14.3945 14.4254 14.0385L11.9608 11.5648V6.47127C11.9608 5.96714 11.5521 5.55846 11.048 5.55846C10.5439 5.55846 10.1352 5.96714 10.1352 6.47127V12.3224L13.1383 15.3256C13.4944 15.6795 14.0694 15.6795 14.4254 15.3256Z" fill="#21CA3D"/>
</svg>
