<svg width="16" height="16" viewBox="0 0 16 16" fill="none" xmlns="http://www.w3.org/2000/svg">
<path fill-rule="evenodd" clip-rule="evenodd" d="M0 8C0 3.584 3.576 0 7.992 0C12.416 0 16 3.584 16 8C16 12.416 12.416 16 7.992 16C3.576 16 0 12.416 0 8ZM5.7014 10.8836H4.5V10.201H5.7014V9.10774H4.5V8.42516H5.7014V4H8.71716C10.4028 4 11.5 5.07014 11.5 6.55098V6.56255C11.5 8.04917 10.3783 9.10774 8.67426 9.10774H7.05604V10.201H9.51401V10.8836H7.05604V12H5.7014V10.8836ZM7.05604 5.07592V8.04917H8.33713C9.52627 8.04917 10.1208 7.49385 10.1208 6.56833V6.55676C10.1208 5.64281 9.5324 5.07592 8.34326 5.07592H7.05604Z" fill="#35DCA5"/>
</svg>
