<svg width="16" height="16" viewBox="0 0 16 16" fill="none" xmlns="http://www.w3.org/2000/svg">
<path fill-rule="evenodd" clip-rule="evenodd" d="M8 16C12.4183 16 16 12.4183 16 8C16 3.58172 12.4183 0 8 0C3.58172 0 0 3.58172 0 8C0 12.4183 3.58172 16 8 16ZM3 8C3 5.24 5.24 3 8 3C10.76 3 13 5.24 13 8C13 10.76 10.76 13 8 13C5.24 13 3 10.76 3 8ZM4 8C4 10.04 5.525 11.72 7.5 11.965V11C6.95 11 6.5 10.55 6.5 10V9.5L4.105 7.105C4.04 7.395 4 7.69 4 8ZM10 10C10.45 10 10.82 10.29 10.95 10.695C11.6 9.985 12 9.04 12 8C12 6.325 10.965 4.89 9.5 4.295V4.5C9.5 5.05 9.05 5.5 8.5 5.5H7.5V6.5C7.5 6.775 7.275 7 7 7H6V8H9C9.275 8 9.5 8.225 9.5 8.5V10H10Z" fill="#35DCA5"/>
</svg>
