<svg width="24" height="24" viewBox="0 0 24 24" fill="none" xmlns="http://www.w3.org/2000/svg">
<path fill-rule="evenodd" clip-rule="evenodd" d="M18.3513 23.9792H11.9748C11.4229 23.9792 10.9754 23.5294 10.9754 22.9745C10.9754 22.4197 11.4229 21.9699 11.9748 21.9699H18.3513C18.6952 21.97 18.9755 21.6927 18.981 21.3471V9.78409C18.9807 9.61878 18.9161 9.46013 18.8011 9.34206L15.6928 6.21774C15.5759 6.10113 15.4177 6.03606 15.253 6.03691H9.61616C9.27232 6.0424 8.99646 6.32416 8.9965 6.66981V22.9946C8.9965 23.5495 8.54903 23.9992 7.99706 23.9992C7.44508 23.9992 6.99761 23.5495 6.99761 22.9946V6.66981C7.00312 5.21454 8.17834 4.03774 9.62615 4.03775H15.263C15.9607 4.03536 16.6302 4.31395 17.122 4.81129L20.2303 7.93561C20.7222 8.43186 20.9989 9.1036 20.9998 9.80418V21.3672C20.9834 22.8225 19.7992 23.9903 18.3513 23.9792ZM4.9889 18.9569V2.63206C4.99435 2.28645 5.27466 2.00917 5.61855 2.00921H12.2549C12.8068 2.00921 13.2543 1.55943 13.2543 1.0046C13.2543 0.449777 12.8068 0 12.2549 0H5.61855C4.17075 0.00553339 2.99999 1.18683 3 2.64211V18.9669C3 19.5218 3.44747 19.9715 3.99944 19.9715C4.55142 19.9715 4.99889 19.5218 4.99889 18.9669L4.9889 18.9569Z" fill="#21CA3D"/>
</svg>
