<svg width="36" height="24" viewBox="0 0 36 24" fill="none" xmlns="http://www.w3.org/2000/svg">
<path d="M0 6.4C0 4.15979 0 3.03969 0.435974 2.18404C0.819467 1.43139 1.43139 0.819467 2.18404 0.435974C3.03969 0 4.15979 0 6.4 0H29.6C31.8402 0 32.9603 0 33.816 0.435974C34.5686 0.819467 35.1805 1.43139 35.564 2.18404C36 3.03969 36 4.15979 36 6.4V17.6C36 19.8402 36 20.9603 35.564 21.816C35.1805 22.5686 34.5686 23.1805 33.816 23.564C32.9603 24 31.8402 24 29.6 24H6.4C4.15979 24 3.03969 24 2.18404 23.564C1.43139 23.1805 0.819467 22.5686 0.435974 21.816C0 20.9603 0 19.8402 0 17.6V6.4Z" fill="#F2F5F4"/>
<path fill-rule="evenodd" clip-rule="evenodd" d="M17.2634 10.002C17.2764 8.22409 18.8862 6.98218 21.1732 6.98218C22.065 6.98218 22.7809 7.18071 23.3381 7.38717L22.9315 9.32456C21.8959 8.83758 20.9815 8.87178 20.6502 8.91561C19.9815 9.00508 19.6762 9.35344 19.6688 9.68096C19.6463 10.7583 22.9209 10.8914 22.9107 13.3024C22.9029 15.2024 21.3132 16.4286 18.8821 16.4286C17.8473 16.4175 16.8492 16.1966 16.309 15.9432L16.7279 13.941C17.266 14.1972 17.9412 14.5367 19.1043 14.5182C19.7704 14.5076 20.4828 14.2374 20.4895 13.6242C20.493 13.2238 20.1906 12.9365 19.2895 12.4888C18.4123 12.0513 17.2483 11.3181 17.2634 10.002ZM27.2475 7.14922H29.2224L31.0905 16.2857H28.9504L28.6708 14.9207H25.7025L25.2197 16.2857H22.7902L26.2625 7.81933C26.4286 7.41299 26.8031 7.14922 27.2475 7.14922ZM27.5865 9.61788L26.3684 13.0484H28.2876L27.5865 9.61788ZM14.3196 7.14922H16.633L14.7194 16.2857H12.4054L14.3196 7.14922ZM10.896 7.14922H13.3264L9.57735 16.2857H7.1316L5.28659 8.99421C5.17461 8.54539 5.07759 8.38061 4.73697 8.1917C4.18069 7.88321 3.26218 7.59374 2.4541 7.41412L2.50865 7.14922H6.44615C6.94766 7.14922 7.39926 7.49022 7.51336 8.08049L8.48753 13.3676L10.896 7.14922Z" fill="#223084"/>
</svg>
